<svg width="350.2375244140625px" height="121.60000610351562px" xmlns="http://www.w3.org/2000/svg" viewBox="74.88123779296876 14.199996948242188 350.2375244140625 121.60000610351562" style="background: rgba(0, 0, 0, 0);" preserveAspectRatio="xMidYMid"><defs><filter id="editing-neon" x="-100%" y="-100%" width="300%" height="300%"><feFlood flood-color="#00ff2f" result="flood"></feFlood><feComposite operator="in" in="flood" in2="SourceAlpha" result="color"></feComposite><feFlood flood-color="#00ff2f" result="flood2"></feFlood><feComposite operator="in" in="flood2" in2="SourceAlpha" result="color2"></feComposite><feMorphology operator="dilate" radius="2" in="color" result="dilate"></feMorphology><feGaussianBlur stdDeviation="6" in="color" result="blur1"></feGaussianBlur><feGaussianBlur stdDeviation="2.5" in="color" result="blur2"></feGaussianBlur><feGaussianBlur stdDeviation="1" in="SourceAlpha" result="blur3"></feGaussianBlur><feGaussianBlur stdDeviation="6" in="dilate" result="blur4"></feGaussianBlur><feConvolveMatrix in="color2" result="conv" order="3,3" divisor="1" kernelMatrix="1 1 1  1 1 1  1 1 1"></feConvolveMatrix><feMerge><feMergeNode in="blur1"></feMergeNode><feMergeNode in="blur2"></feMergeNode><feMergeNode in="blur4"></feMergeNode><feMergeNode in="blur3"></feMergeNode><feMergeNode in="blur3"></feMergeNode><feMergeNode in="blur3"></feMergeNode><feMergeNode in="blur3"></feMergeNode><feMergeNode in="conv"></feMergeNode><feMergeNode in="SourceGraphic"></feMergeNode></feMerge></filter></defs><g filter="url(#editing-neon)"><g transform="translate(128.94498166441917, 98.99999618530273)"><path d="M30.21-33.92L30.21-33.92L30.21-33.92Q25.02-33.92 21.25-35.65L21.25-35.65L19.20-25.28L31.55-25.28L31.55-25.28Q31.55-21.89 29.86-19.74L29.86-19.74L29.86-19.74Q28.16-17.60 25.09-17.60L25.09-17.60L25.09-17.60Q21.76-17.60 18.69-18.82L18.69-18.82L18.69-18.82Q18.05-19.07 17.98-19.14L17.98-19.14L14.34 0L0.38 0L8.51-42.24L37.06-42.24L37.06-42.24Q37.06-38.34 35.23-36.13L35.23-36.13L35.23-36.13Q33.41-33.92 30.21-33.92ZM50.82-3.52L50.82-3.52L50.82-3.52Q48.83 1.28 42.50 1.28L42.50 1.28L42.50 1.28Q39.23 1.28 37.18-0.96L37.18-0.96L37.18-0.96Q35.46-2.94 35.46-4.93L35.46-4.93L35.46-4.93Q35.46-10.11 37.82-20.22L37.82-20.22L40.19-32.64L53.18-33.92L49.28-13.70L49.28-13.70Q48.19-8.96 48.19-7.30L48.19-7.30L48.19-7.30Q48.19-3.65 50.82-3.52ZM41.34-41.54L41.34-41.54L41.34-41.54Q41.34-44.03 43.42-45.38L43.42-45.38L43.42-45.38Q45.50-46.72 48.51-46.72L48.51-46.72L48.51-46.72Q51.52-46.72 53.34-45.38L53.34-45.38L53.34-45.38Q55.17-44.03 55.17-41.54L55.17-41.54L55.17-41.54Q55.17-39.04 53.15-37.76L53.15-37.76L53.15-37.76Q51.14-36.48 48.13-36.48L48.13-36.48L48.13-36.48Q45.12-36.48 43.23-37.76L43.23-37.76L43.23-37.76Q41.34-39.04 41.34-41.54ZM83.33 1.28L83.33 1.28L83.33 1.28Q75.58 1.28 75.58-4.74L75.58-4.74L75.58-4.74Q75.65-6.40 76.16-9.22L76.16-9.22L77.31-15.10L77.31-15.10Q79.04-23.42 79.04-25.28L79.04-25.28L79.04-25.28Q79.04-28.99 76.86-28.99L76.86-28.99L76.86-28.99Q73.22-28.99 71.30-19.46L71.30-19.46L67.52 0L54.66 1.28L61.31-32.70L71.81-33.92L70.78-27.65L70.78-27.65Q73.79-33.92 83.01-33.92L83.01-33.92L83.01-33.92Q87.49-33.92 89.38-32.03L89.38-32.03L89.38-32.03Q91.26-30.14 91.26-25.92L91.26-25.92L91.26-25.92Q91.26-21.95 89.22-12.67L89.22-12.67L89.22-12.67Q88.26-8.51 88.26-6.94L88.26-6.94L88.26-6.94Q88.26-5.38 89.12-4.48L89.12-4.48L89.12-4.48Q89.98-3.58 91.26-3.46L91.26-3.46L91.26-3.46Q90.62-1.28 88.42 0L88.42 0L88.42 0Q86.21 1.28 83.33 1.28ZM99.17-1.92L99.17-1.92L99.17-1.92Q97.66-3.58 96.99-6.21L96.99-6.21L96.99-6.21Q96.32-8.83 96.32-13.12L96.32-13.12L96.32-13.12Q96.32-17.41 97.79-21.31L97.79-21.31L97.79-21.31Q99.26-25.22 101.95-28.03L101.95-28.03L101.95-28.03Q107.46-33.92 116.54-33.92L116.54-33.92L116.54-33.92Q119.81-33.92 122.18-32.83L122.18-32.83L133.12-33.92L128.38-8.96L128.38-8.96Q128.19-8.19 128.19-6.78L128.19-6.78L128.19-6.78Q128.19-5.38 129.06-4.48L129.06-4.48L129.06-4.48Q129.92-3.58 131.20-3.46L131.20-3.46L131.20-3.46Q130.56-1.28 128.22 0L128.22 0L128.22 0Q125.89 1.28 123.26 1.28L123.26 1.28L123.26 1.28Q120.64 1.28 118.88 0.29L118.88 0.29L118.88 0.29Q117.12-0.70 116.61-2.37L116.61-2.37L116.61-2.37Q115.58-0.77 113.41 0.26L113.41 0.26L113.41 0.26Q111.23 1.28 108.32 1.28L108.32 1.28L108.32 1.28Q105.41 1.28 103.04 0.51L103.04 0.51L103.04 0.51Q100.67-0.26 99.17-1.92ZM112.67-27.90L112.67-27.90L112.67-27.90Q111.94-26.75 111.30-24.80L111.30-24.80L111.30-24.80Q110.66-22.85 109.60-17.63L109.60-17.63L109.60-17.63Q108.54-12.42 108.54-8.70L108.54-8.70L108.54-8.70Q108.54-4.99 109.12-3.90L109.12-3.90L109.12-3.90Q109.70-2.82 110.72-2.82L110.72-2.82L110.72-2.82Q112.77-2.82 114.27-4.77L114.27-4.77L114.27-4.77Q115.78-6.72 116.35-10.18L116.35-10.18L119.74-28.93L119.74-28.93Q118.40-30.08 116.83-30.08L116.83-30.08L116.83-30.08Q115.26-30.08 114.34-29.57L114.34-29.57L114.34-29.57Q113.41-29.06 112.67-27.90ZM163.65 1.28L163.65 1.28L163.65 1.28Q155.90 1.28 155.90-4.74L155.90-4.74L155.90-4.74Q155.97-6.40 156.48-9.22L156.48-9.22L157.63-15.10L157.63-15.10Q159.36-23.42 159.36-25.28L159.36-25.28L159.36-25.28Q159.36-28.99 157.18-28.99L157.18-28.99L157.18-28.99Q153.54-28.99 151.62-19.46L151.62-19.46L147.84 0L134.98 1.28L141.63-32.70L152.13-33.92L151.10-27.65L151.10-27.65Q154.11-33.92 163.33-33.92L163.33-33.92L163.33-33.92Q167.81-33.92 169.70-32.03L169.70-32.03L169.70-32.03Q171.58-30.14 171.58-25.92L171.58-25.92L171.58-25.92Q171.58-21.95 169.54-12.67L169.54-12.67L169.54-12.67Q168.58-8.51 168.58-6.94L168.58-6.94L168.58-6.94Q168.58-5.38 169.44-4.48L169.44-4.48L169.44-4.48Q170.30-3.58 171.58-3.46L171.58-3.46L171.58-3.46Q170.94-1.28 168.74 0L168.74 0L168.74 0Q166.53 1.28 163.65 1.28ZM208.13-26.62L208.13-26.62L208.13-26.62Q208.13-23.94 205.89-22.27L205.89-22.27L205.89-22.27Q203.65-20.61 200-20.61L200-20.61L200-20.61Q198.46-20.61 197.57-21.06L197.57-21.06L197.57-21.06Q198.27-22.72 198.50-24.80L198.50-24.80L198.50-24.80Q198.72-26.88 198.72-27.46L198.72-27.46L198.72-27.46Q198.72-30.14 196.86-30.14L196.86-30.14L196.86-30.14Q195.58-30.14 194.14-28.54L194.14-28.54L194.14-28.54Q192.70-26.94 191.49-24.45L191.49-24.45L191.49-24.45Q188.80-18.69 188.80-12.86L188.80-12.86L188.80-12.86Q188.80-9.66 190.02-8.22L190.02-8.22L190.02-8.22Q191.23-6.78 193.92-6.78L193.92-6.78L193.92-6.78Q197.63-6.78 200.58-9.86L200.58-9.86L200.58-9.86Q201.41-10.82 201.86-11.90L201.86-11.90L201.86-11.90Q204.29-10.62 204.29-7.10L204.29-7.10L204.29-7.10Q204.29-3.52 200.32-1.15L200.32-1.15L200.32-1.15Q196.22 1.28 189.70 1.28L189.70 1.28L189.70 1.28Q176.70 1.28 176.70-12.48L176.70-12.48L176.70-12.48Q176.70-22.53 182.40-28.29L182.40-28.29L182.40-28.29Q187.90-33.92 198.02-33.92L198.02-33.92L198.02-33.92Q208.13-33.92 208.13-26.62ZM235.78-10.82L235.78-10.82L235.78-10.82Q237.38-9.73 237.38-7.33L237.38-7.33L237.38-7.33Q237.38-4.93 236.16-3.39L236.16-3.39L236.16-3.39Q234.94-1.86 232.96-0.83L232.96-0.83L232.96-0.83Q228.86 1.28 224.45 1.28L224.45 1.28L224.45 1.28Q220.03 1.28 217.44 0.32L217.44 0.32L217.44 0.32Q214.85-0.64 213.12-2.43L213.12-2.43L213.12-2.43Q209.73-5.82 209.73-12.03L209.73-12.03L209.73-12.03Q209.73-21.70 214.98-27.58L214.98-27.58L214.98-27.58Q220.61-33.92 230.40-33.92L230.40-33.92L230.40-33.92Q236.48-33.92 239.49-31.36L239.49-31.36L239.49-31.36Q241.73-29.44 241.73-26.30L241.73-26.30L241.73-26.30Q241.73-15.04 222.27-15.04L222.27-15.04L222.27-15.04Q222.02-13.38 222.02-11.97L222.02-11.97L222.02-11.97Q222.02-9.02 223.33-7.90L223.33-7.90L223.33-7.90Q224.64-6.78 227.07-6.78L227.07-6.78L227.07-6.78Q229.50-6.78 232.10-7.90L232.10-7.90L232.10-7.90Q234.69-9.02 235.78-10.82ZM222.72-17.79L222.72-17.79L222.72-17.79Q227.26-17.79 229.89-20.61L229.89-20.61L229.89-20.61Q232.51-23.30 232.51-27.58L232.51-27.58L232.51-27.58Q232.51-29.06 231.97-29.86L231.97-29.86L231.97-29.86Q231.42-30.66 230.34-30.66L230.34-30.66L230.34-30.66Q229.25-30.66 228.32-30.24L228.32-30.24L228.32-30.24Q227.39-29.82 226.43-28.42L226.43-28.42L226.43-28.42Q224.06-25.22 222.72-17.79Z" fill="none" stroke="#e9ffd4" stroke-width="1"></path></g></g><style>text {
  font-size: 64px;
  font-family: Arial Black;
  dominant-baseline: central;
  text-anchor: middle;
}</style></svg>