<svg width="139.63525390625px" height="56px" xmlns="http://www.w3.org/2000/svg" viewBox="180.182373046875 47 139.63525390625 56" style="background: rgba(0, 0, 0, 0);" preserveAspectRatio="xMidYMid"><defs><filter id="editing-neon" x="-100%" y="-100%" width="300%" height="300%"><feFlood flood-color="#00ff2f" result="flood"></feFlood><feComposite operator="in" in="flood" in2="SourceAlpha" result="color"></feComposite><feFlood flood-color="#00ff2f" result="flood2"></feFlood><feComposite operator="in" in="flood2" in2="SourceAlpha" result="color2"></feComposite><feMorphology operator="dilate" radius="2" in="color" result="dilate"></feMorphology><feGaussianBlur stdDeviation="6" in="color" result="blur1"></feGaussianBlur><feGaussianBlur stdDeviation="2.5" in="color" result="blur2"></feGaussianBlur><feGaussianBlur stdDeviation="1" in="SourceAlpha" result="blur3"></feGaussianBlur><feGaussianBlur stdDeviation="6" in="dilate" result="blur4"></feGaussianBlur><feConvolveMatrix in="color2" result="conv" order="3,3" divisor="1" kernelMatrix="1 1 1  1 1 1  1 1 1"></feConvolveMatrix><feMerge><feMergeNode in="blur1"></feMergeNode><feMergeNode in="blur2"></feMergeNode><feMergeNode in="blur4"></feMergeNode><feMergeNode in="blur3"></feMergeNode><feMergeNode in="blur3"></feMergeNode><feMergeNode in="blur3"></feMergeNode><feMergeNode in="blur3"></feMergeNode><feMergeNode in="conv"></feMergeNode><feMergeNode in="SourceGraphic"></feMergeNode></feMerge></filter></defs><g filter="url(#editing-neon)"><g transform="translate(206.25520645081997, 83.62499523162842)"><path d="M10.86-12.19L10.86-12.19L10.86-12.19Q8.99-12.19 7.64-12.81L7.64-12.81L6.90-9.08L11.34-9.08L11.34-9.08Q11.34-7.87 10.73-7.10L10.73-7.10L10.73-7.10Q10.12-6.33 9.02-6.33L9.02-6.33L9.02-6.33Q7.82-6.33 6.72-6.76L6.72-6.76L6.72-6.76Q6.49-6.85 6.46-6.88L6.46-6.88L5.15 0L0.14 0L3.06-15.18L13.32-15.18L13.32-15.18Q13.32-13.78 12.66-12.98L12.66-12.98L12.66-12.98Q12.01-12.19 10.86-12.19ZM18.26-1.26L18.26-1.26L18.26-1.26Q17.55 0.46 15.27 0.46L15.27 0.46L15.27 0.46Q14.10 0.46 13.36-0.34L13.36-0.34L13.36-0.34Q12.74-1.06 12.74-1.77L12.74-1.77L12.74-1.77Q12.74-3.63 13.59-7.27L13.59-7.27L14.44-11.73L19.11-12.19L17.71-4.92L17.71-4.92Q17.32-3.22 17.32-2.62L17.32-2.62L17.32-2.62Q17.32-1.31 18.26-1.26ZM14.86-14.93L14.86-14.93L14.86-14.93Q14.86-15.82 15.61-16.31L15.61-16.31L15.61-16.31Q16.35-16.79 17.43-16.79L17.43-16.79L17.43-16.79Q18.52-16.79 19.17-16.31L19.17-16.31L19.17-16.31Q19.83-15.82 19.83-14.93L19.83-14.93L19.83-14.93Q19.83-14.03 19.10-13.57L19.10-13.57L19.10-13.57Q18.38-13.11 17.30-13.11L17.30-13.11L17.30-13.11Q16.21-13.11 15.54-13.57L15.54-13.57L15.54-13.57Q14.86-14.03 14.86-14.93ZM29.95 0.46L29.95 0.46L29.95 0.46Q27.16 0.46 27.16-1.70L27.16-1.70L27.16-1.70Q27.19-2.30 27.37-3.31L27.37-3.31L27.78-5.43L27.78-5.43Q28.41-8.42 28.41-9.08L28.41-9.08L28.41-9.08Q28.41-10.42 27.62-10.42L27.62-10.42L27.62-10.42Q26.31-10.42 25.62-6.99L25.62-6.99L24.27 0L19.64 0.46L22.03-11.75L25.81-12.19L25.44-9.94L25.44-9.94Q26.52-12.19 29.83-12.19L29.83-12.19L29.83-12.19Q31.44-12.19 32.12-11.51L32.12-11.51L32.12-11.51Q32.80-10.83 32.80-9.31L32.80-9.31L32.80-9.31Q32.80-7.89 32.06-4.55L32.06-4.55L32.06-4.55Q31.72-3.06 31.72-2.50L31.72-2.50L31.72-2.50Q31.72-1.93 32.03-1.61L32.03-1.61L32.03-1.61Q32.34-1.29 32.80-1.24L32.80-1.24L32.80-1.24Q32.57-0.46 31.77 0L31.77 0L31.77 0Q30.98 0.46 29.95 0.46ZM35.64-0.69L35.64-0.69L35.64-0.69Q35.10-1.29 34.86-2.23L34.86-2.23L34.86-2.23Q34.62-3.17 34.62-4.71L34.62-4.71L34.62-4.71Q34.62-6.26 35.14-7.66L35.14-7.66L35.14-7.66Q35.67-9.06 36.64-10.07L36.64-10.07L36.64-10.07Q38.62-12.19 41.88-12.19L41.88-12.19L41.88-12.19Q43.06-12.19 43.91-11.80L43.91-11.80L47.84-12.19L46.14-3.22L46.14-3.22Q46.07-2.94 46.07-2.44L46.07-2.44L46.07-2.44Q46.07-1.93 46.38-1.61L46.38-1.61L46.38-1.61Q46.69-1.29 47.15-1.24L47.15-1.24L47.15-1.24Q46.92-0.46 46.08 0L46.08 0L46.08 0Q45.24 0.46 44.30 0.46L44.30 0.46L44.30 0.46Q43.36 0.46 42.72 0.10L42.72 0.10L42.72 0.10Q42.09-0.25 41.91-0.85L41.91-0.85L41.91-0.85Q41.54-0.28 40.76 0.09L40.76 0.09L40.76 0.09Q39.97 0.46 38.93 0.46L38.93 0.46L38.93 0.46Q37.88 0.46 37.03 0.18L37.03 0.18L37.03 0.18Q36.18-0.09 35.64-0.69ZM40.49-10.03L40.49-10.03L40.49-10.03Q40.23-9.61 40.00-8.91L40.00-8.91L40.00-8.91Q39.77-8.21 39.39-6.34L39.39-6.34L39.39-6.34Q39.01-4.46 39.01-3.13L39.01-3.13L39.01-3.13Q39.01-1.79 39.22-1.40L39.22-1.40L39.22-1.40Q39.42-1.01 39.79-1.01L39.79-1.01L39.79-1.01Q40.53-1.01 41.07-1.71L41.07-1.71L41.07-1.71Q41.61-2.42 41.81-3.66L41.81-3.66L43.03-10.40L43.03-10.40Q42.55-10.81 41.99-10.81L41.99-10.81L41.99-10.81Q41.42-10.81 41.09-10.63L41.09-10.63L41.09-10.63Q40.76-10.44 40.49-10.03ZM58.81 0.46L58.81 0.46L58.81 0.46Q56.03 0.46 56.03-1.70L56.03-1.70L56.03-1.70Q56.05-2.30 56.23-3.31L56.23-3.31L56.65-5.43L56.65-5.43Q57.27-8.42 57.27-9.08L57.27-9.08L57.27-9.08Q57.27-10.42 56.49-10.42L56.49-10.42L56.49-10.42Q55.18-10.42 54.49-6.99L54.49-6.99L53.13 0L48.51 0.46L50.90-11.75L54.67-12.19L54.30-9.94L54.30-9.94Q55.38-12.19 58.70-12.19L58.70-12.19L58.70-12.19Q60.31-12.19 60.98-11.51L60.98-11.51L60.98-11.51Q61.66-10.83 61.66-9.31L61.66-9.31L61.66-9.31Q61.66-7.89 60.93-4.55L60.93-4.55L60.93-4.55Q60.58-3.06 60.58-2.50L60.58-2.50L60.58-2.50Q60.58-1.93 60.89-1.61L60.89-1.61L60.89-1.61Q61.20-1.29 61.66-1.24L61.66-1.24L61.66-1.24Q61.43-0.46 60.64 0L60.64 0L60.64 0Q59.85 0.46 58.81 0.46ZM74.80-9.57L74.80-9.57L74.80-9.57Q74.80-8.60 73.99-8.00L73.99-8.00L73.99-8.00Q73.19-7.41 71.88-7.41L71.88-7.41L71.88-7.41Q71.32-7.41 71.00-7.57L71.00-7.57L71.00-7.57Q71.25-8.16 71.33-8.91L71.33-8.91L71.33-8.91Q71.42-9.66 71.42-9.87L71.42-9.87L71.42-9.87Q71.42-10.83 70.75-10.83L70.75-10.83L70.75-10.83Q70.29-10.83 69.77-10.26L69.77-10.26L69.77-10.26Q69.25-9.68 68.82-8.79L68.82-8.79L68.82-8.79Q67.85-6.72 67.85-4.62L67.85-4.62L67.85-4.62Q67.85-3.47 68.29-2.96L68.29-2.96L68.29-2.96Q68.72-2.44 69.69-2.44L69.69-2.44L69.69-2.44Q71.02-2.44 72.08-3.54L72.08-3.54L72.08-3.54Q72.38-3.89 72.54-4.28L72.54-4.28L72.54-4.28Q73.42-3.82 73.42-2.55L73.42-2.55L73.42-2.55Q73.42-1.26 71.99-0.41L71.99-0.41L71.99-0.41Q70.52 0.46 68.17 0.46L68.17 0.46L68.17 0.46Q63.50 0.46 63.50-4.49L63.50-4.49L63.50-4.49Q63.50-8.10 65.55-10.17L65.55-10.17L65.55-10.17Q67.53-12.19 71.16-12.19L71.16-12.19L71.16-12.19Q74.80-12.19 74.80-9.57ZM84.73-3.89L84.73-3.89L84.73-3.89Q85.31-3.50 85.31-2.63L85.31-2.63L85.31-2.63Q85.31-1.77 84.87-1.22L84.87-1.22L84.87-1.22Q84.43-0.67 83.72-0.30L83.72-0.30L83.72-0.30Q82.25 0.46 80.66 0.46L80.66 0.46L80.66 0.46Q79.07 0.46 78.14 0.11L78.14 0.11L78.14 0.11Q77.21-0.23 76.59-0.87L76.59-0.87L76.59-0.87Q75.37-2.09 75.37-4.32L75.37-4.32L75.37-4.32Q75.37-7.80 77.26-9.91L77.26-9.91L77.26-9.91Q79.28-12.19 82.80-12.19L82.80-12.19L82.80-12.19Q84.98-12.19 86.07-11.27L86.07-11.27L86.07-11.27Q86.87-10.58 86.87-9.45L86.87-9.45L86.87-9.45Q86.87-5.41 79.88-5.41L79.88-5.41L79.88-5.41Q79.79-4.81 79.79-4.30L79.79-4.30L79.79-4.30Q79.79-3.24 80.26-2.84L80.26-2.84L80.26-2.84Q80.73-2.44 81.60-2.44L81.60-2.44L81.60-2.44Q82.48-2.44 83.41-2.84L83.41-2.84L83.41-2.84Q84.34-3.24 84.73-3.89ZM80.04-6.39L80.04-6.39L80.04-6.39Q81.67-6.39 82.62-7.41L82.62-7.41L82.62-7.41Q83.56-8.37 83.56-9.91L83.56-9.91L83.56-9.91Q83.56-10.44 83.36-10.73L83.36-10.73L83.36-10.73Q83.17-11.02 82.78-11.02L82.78-11.02L82.78-11.02Q82.39-11.02 82.05-10.87L82.05-10.87L82.05-10.87Q81.72-10.72 81.37-10.21L81.37-10.21L81.37-10.21Q80.52-9.06 80.04-6.39Z" fill="none" stroke="#e9ffd4" stroke-width="0.3"></path></g></g><style>text {
  font-size: 64px;
  font-family: Arial Black;
  dominant-baseline: central;
  text-anchor: middle;
}</style></svg>